<svg xmlns="http://www.w3.org/2000/svg" version="1.1" xmlns:xlink="http://www.w3.org/1999/xlink" xmlns:svgjs="http://svgjs.dev/svgjs" viewBox="0 0 12.899584593533826 9.03840909033736"><g transform="matrix(1,0,0,1,0.8969652839739428,6.374905806363417)"><g><path d=" M 0.6228629999999999 0 L 1.19646 1.256283 L 0.8815095 1.256283 L 0.5155335 0.3395834999999999 L 0.6228629999999999 0 M 0.2445705 1.1383965 Q 0.2304945 1.1735864999999999 0.239292 1.1982195 Q 0.2480895 1.2228525 0.2692035 1.23604875 Q 0.2903175 1.249245 0.31143149999999997 1.249245 L 0.327267 1.249245 L 0.327267 1.26684 L -0.049266 1.26684 L -0.049266 1.249245 Q -0.049266 1.249245 -0.04134825 1.249245 Q -0.0334305 1.249245 -0.0334305 1.249245 Q 0.007038 1.249245 0.05014575 1.2237322499999999 Q 0.0932535 1.1982195 0.1214055 1.1383965 L 0.2445705 1.1383965 M 0.6228629999999999 0 L 0.629901 0.21465899999999993 L 0.193545 1.2615615 L 0.0651015 1.2615615 L 0.520812 0.23049450000000005 Q 0.5260905 0.2199374999999999 0.53928675 0.19090574999999999 Q 0.552483 0.16187400000000007 0.56743875 0.12492449999999988 Q 0.5823945 0.08797499999999991 0.594711 0.05366475000000004 Q 0.6070275 0.01935449999999994 0.6070275 0 L 0.6228629999999999 0 M 0.8076105 0.848079 L 0.8076105 0.921978 L 0.2903175 0.921978 L 0.2903175 0.848079 L 0.8076105 0.848079 M 0.834003 1.1383965 L 1.1419155 1.1383965 Q 1.171827 1.1982195 1.214055 1.2237322499999999 Q 1.256283 1.249245 1.2967515 1.249245 Q 1.2967515 1.249245 1.3037895 1.249245 Q 1.3108275 1.249245 1.3108275 1.249245 L 1.3108275 1.26684 L 0.7513065 1.26684 L 0.7513065 1.249245 L 0.767142 1.249245 Q 0.802332 1.249245 0.8287245 1.22021325 Q 0.855117 1.1911815 0.834003 1.1383965 M 2.024652354345703 1.2914729999999999 L 1.9736268543457034 1.221093 Q 2.0756778543457033 1.2281309999999999 2.1583743543457032 1.23956775 Q 2.241070854345703 1.2510045 2.314969854345703 1.26771975 Q 2.388868854345703 1.284435 2.463647604345703 1.309068 Q 2.5384263543457033 1.333701 2.6255216043457033 1.365372 Q 2.712616854345703 1.397043 2.821705854345703 1.439271 Q 2.939592354345703 1.485018 3.0548396043457036 1.506132 Q 3.170086854345703 1.5272459999999999 3.275656854345703 1.5219675 Q 3.3812268543457034 1.516689 3.4727208543457033 1.485018 Q 3.5642148543457033 1.453347 3.6363543543457033 1.393524 L 3.6469113543457032 1.4005619999999999 Q 3.641632854345703 1.4832585 3.594126354345703 1.5553979999999998 Q 3.5466198543457033 1.6275374999999999 3.4621638543457034 1.678563 Q 3.377707854345703 1.7295885 3.262460604345703 1.74806325 Q 3.1472133543457033 1.766538 3.008212854345703 1.74278475 Q 2.869212354345703 1.7190315 2.712616854345703 1.639854 Q 2.6140848543457036 1.590588 2.5261098543457035 1.53340425 Q 2.4381348543457033 1.4762205 2.354558604345703 1.4234355 Q 2.270982354345703 1.3706505 2.1900453543457035 1.33458075 Q 2.1091083543457034 1.298511 2.024652354345703 1.2914729999999999 M 2.035209354345703 0.010556999999999928 Q 2.2463493543457034 0.010556999999999928 2.402065104345703 0.08885474999999987 Q 2.5577808543457032 0.16715250000000004 2.642236854345703 0.30967199999999995 Q 2.7266928543457034 0.45219149999999997 2.7266928543457034 0.651015 Q 2.7266928543457034 0.848079 2.642236854345703 0.9914782499999999 Q 2.5577808543457032 1.1348775 2.4011853543457033 1.21317525 Q 2.244589854345703 1.2914729999999999 2.035209354345703 1.2914729999999999 Q 1.8240693543457032 1.2914729999999999 1.6683536043457032 1.21317525 Q 1.5126378543457033 1.1348775 1.4281818543457032 0.992358 Q 1.3437258543457034 0.8498384999999999 1.3437258543457034 0.651015 Q 1.3437258543457034 0.453951 1.4281818543457032 0.31055175 Q 1.5126378543457033 0.16715250000000004 1.6683536043457032 0.08885474999999987 Q 1.8240693543457032 0.010556999999999928 2.035209354345703 0.010556999999999928 M 2.035209354345703 1.217574 Q 2.160133854345703 1.217574 2.2507481043457034 1.14807375 Q 2.341362354345703 1.0785735 2.3897486043457032 0.9518894999999999 Q 2.4381348543457033 0.8252055 2.4381348543457033 0.651015 Q 2.4381348543457033 0.4768245 2.3897486043457032 0.35014049999999997 Q 2.341362354345703 0.22345649999999995 2.2507481043457034 0.15395625000000002 Q 2.160133854345703 0.08445599999999986 2.035209354345703 0.08445599999999986 Q 1.9102848543457034 0.08445599999999986 1.8196706043457032 0.15395625000000002 Q 1.7290563543457034 0.22345649999999995 1.6797903543457033 0.35014049999999997 Q 1.6305243543457033 0.4768245 1.6305243543457033 0.651015 Q 1.6305243543457033 0.8252055 1.6806701043457033 0.9518894999999999 Q 1.7308158543457033 1.0785735 1.8214301043457033 1.14807375 Q 1.9120443543457033 1.217574 2.035209354345703 1.217574 M 3.292690498242188 0.035190000000000055 L 3.292690498242188 0.8093699999999999 Q 3.292690498242188 0.9342945 3.334038748242188 1.0257885 Q 3.375386998242188 1.1172825 3.451925248242188 1.1665485 Q 3.528463498242188 1.2158145 3.6340334982421876 1.2158145 Q 3.7413629982421877 1.2158145 3.819660748242188 1.1691877499999999 Q 3.897958498242188 1.122561 3.9401864982421877 1.0363455 Q 3.982414498242188 0.9501299999999999 3.982414498242188 0.8322434999999999 L 3.982414498242188 0.035190000000000055 L 4.109098498242188 0.035190000000000055 L 4.109098498242188 0.8216865 Q 4.109098498242188 0.9659655 4.0483957482421875 1.0715355 Q 3.9876929982421876 1.1771055 3.8742052482421876 1.23428925 Q 3.7607174982421876 1.2914729999999999 3.600602998242188 1.2914729999999999 Q 3.4140959982421877 1.2914729999999999 3.2856524982421877 1.23428925 Q 3.157208998242188 1.1771055 3.0929872482421876 1.07241525 Q 3.028765498242188 0.967725 3.028765498242188 0.8234459999999999 L 3.028765498242188 0.035190000000000055 L 3.292690498242188 0.035190000000000055 M 3.0340439982421876 0.035190000000000055 L 3.0340439982421876 0.14076 L 3.028765498242188 0.14076 Q 3.028765498242188 0.10205099999999989 3.0014932482421877 0.07741799999999999 Q 2.974220998242188 0.05278499999999986 2.9355119982421876 0.05278499999999986 Q 2.9355119982421876 0.05278499999999986 2.921435998242188 0.05278499999999986 Q 2.9073599982421876 0.05278499999999986 2.9073599982421876 0.05278499999999986 L 2.9073599982421876 0.035190000000000055 L 3.0340439982421876 0.035190000000000055 M 3.4140959982421877 0.035190000000000055 L 3.4140959982421877 0.05278499999999986 Q 3.4140959982421877 0.05278499999999986 3.400019998242188 0.05278499999999986 Q 3.3859439982421877 0.05278499999999986 3.3859439982421877 0.05278499999999986 Q 3.347234998242188 0.05278499999999986 3.3199627482421876 0.07741799999999999 Q 3.292690498242188 0.10205099999999989 3.292690498242188 0.14076 L 3.2891714982421876 0.14076 L 3.2891714982421876 0.035190000000000055 L 3.4140959982421877 0.035190000000000055 M 3.9876929982421876 0.035190000000000055 L 3.9876929982421876 0.14076 L 3.982414498242188 0.14076 Q 3.982414498242188 0.10205099999999989 3.955142248242188 0.07741799999999999 Q 3.927869998242188 0.05278499999999986 3.889160998242188 0.05278499999999986 Q 3.889160998242188 0.05278499999999986 3.8750849982421878 0.05278499999999986 Q 3.8610089982421876 0.05278499999999986 3.8610089982421876 0.05278499999999986 L 3.8610089982421876 0.035190000000000055 L 3.9876929982421876 0.035190000000000055 M 4.230503998242188 0.035190000000000055 L 4.230503998242188 0.05278499999999986 Q 4.230503998242188 0.05278499999999986 4.216427998242188 0.05278499999999986 Q 4.202351998242188 0.05278499999999986 4.202351998242188 0.05278499999999986 Q 4.163642998242188 0.05278499999999986 4.136370748242188 0.07741799999999999 Q 4.109098498242188 0.10205099999999989 4.109098498242188 0.14076 L 4.105579498242188 0.14076 L 4.105579498242188 0.035190000000000055 L 4.230503998242188 0.035190000000000055 M 4.889732804736329 0 L 5.463329804736329 1.256283 L 5.148379304736329 1.256283 L 4.782403304736329 0.3395834999999999 L 4.889732804736329 0 M 4.511440304736329 1.1383965 Q 4.497364304736329 1.1735864999999999 4.506161804736329 1.1982195 Q 4.514959304736329 1.2228525 4.536073304736329 1.23604875 Q 4.557187304736329 1.249245 4.578301304736329 1.249245 L 4.594136804736329 1.249245 L 4.594136804736329 1.26684 L 4.217603804736329 1.26684 L 4.217603804736329 1.249245 Q 4.217603804736329 1.249245 4.2255215547363285 1.249245 Q 4.233439304736329 1.249245 4.233439304736329 1.249245 Q 4.273907804736329 1.249245 4.317015554736329 1.2237322499999999 Q 4.360123304736329 1.1982195 4.388275304736329 1.1383965 L 4.511440304736329 1.1383965 M 4.889732804736329 0 L 4.896770804736329 0.21465899999999993 L 4.460414804736329 1.2615615 L 4.331971304736329 1.2615615 L 4.787681804736329 0.23049450000000005 Q 4.792960304736329 0.2199374999999999 4.806156554736329 0.19090574999999999 Q 4.8193528047363285 0.16187400000000007 4.834308554736329 0.12492449999999988 Q 4.849264304736329 0.08797499999999991 4.861580804736329 0.05366475000000004 Q 4.873897304736329 0.01935449999999994 4.873897304736329 0 L 4.889732804736329 0 M 5.074480304736329 0.848079 L 5.074480304736329 0.921978 L 4.557187304736329 0.921978 L 4.557187304736329 0.848079 L 5.074480304736329 0.848079 M 5.100872804736329 1.1383965 L 5.408785304736329 1.1383965 Q 5.438696804736329 1.1982195 5.480924804736329 1.2237322499999999 Q 5.523152804736329 1.249245 5.563621304736329 1.249245 Q 5.563621304736329 1.249245 5.570659304736329 1.249245 Q 5.577697304736329 1.249245 5.577697304736329 1.249245 L 5.577697304736329 1.26684 L 5.018176304736329 1.26684 L 5.018176304736329 1.249245 L 5.034011804736329 1.249245 Q 5.069201804736329 1.249245 5.095594304736329 1.22021325 Q 5.121986804736329 1.1911815 5.100872804736329 1.1383965 M 6.954822730371095 0.010556999999999928 L 6.9688987303710945 0.20234249999999987 L 6.446327230371095 1.108485 Q 6.446327230371095 1.108485 6.428732230371095 1.13927625 Q 6.411137230371095 1.1700675 6.394421980371095 1.2140549999999999 Q 6.377706730371095 1.2580425 6.377706730371095 1.30203 L 6.360111730371095 1.30203 L 6.291491230371095 1.1489535 L 6.954822730371095 0.010556999999999928 M 5.761881730371095 1.1383965 L 5.761881730371095 1.26684 L 5.566577230371095 1.26684 L 5.566577230371095 1.249245 Q 5.568336730371095 1.249245 5.581532980371095 1.249245 Q 5.594729230371095 1.249245 5.594729230371095 1.249245 Q 5.642235730371095 1.249245 5.679185230371095 1.22021325 Q 5.7161347303710945 1.1911815 5.723172730371095 1.1383965 L 5.761881730371095 1.1383965 M 5.839299730371095 1.1665485 Q 5.839299730371095 1.168308 5.839299730371095 1.1700675 Q 5.839299730371095 1.171827 5.839299730371095 1.175346 Q 5.839299730371095 1.203498 5.859533980371095 1.22725125 Q 5.879768230371095 1.2510045 5.9079202303710945 1.2510045 L 5.936072230371095 1.2510045 L 5.936072230371095 1.26684 L 5.826983230371095 1.26684 L 5.826983230371095 1.1665485 L 5.839299730371095 1.1665485 M 5.869211230371095 0.010556999999999928 L 5.885046730371095 0.010556999999999928 L 5.946629230371095 0.18650699999999998 L 5.828742730371095 1.26684 L 5.7073372303710945 1.26684 L 5.869211230371095 0.010556999999999928 M 5.885046730371095 0.010556999999999928 L 6.460403230371095 0.9554085 L 6.360111730371095 1.30203 L 5.839299730371095 0.42755849999999995 L 5.885046730371095 0.010556999999999928 M 6.970658230371095 0.010556999999999928 L 7.137810730371095 1.26684 L 6.854531230371094 1.26684 L 6.766556230371095 0.45746999999999993 L 6.954822730371095 0.010556999999999928 L 6.970658230371095 0.010556999999999928 M 7.083266230371095 1.1383965 L 7.120215730371095 1.1383965 Q 7.129013230371095 1.1911815 7.165962730371095 1.22021325 Q 7.202912230371095 1.249245 7.248659230371095 1.249245 Q 7.248659230371095 1.249245 7.262735230371095 1.249245 Q 7.276811230371095 1.249245 7.276811230371095 1.249245 L 7.276811230371095 1.26684 L 7.083266230371095 1.26684 L 7.083266230371095 1.1383965 M 6.843974230371095 1.1665485 L 6.856290730371095 1.1665485 L 6.856290730371095 1.26684 L 6.748961230371095 1.26684 L 6.748961230371095 1.2510045 L 6.775353730371095 1.2510045 Q 6.805265230371095 1.2510045 6.824619730371095 1.22725125 Q 6.843974230371095 1.203498 6.843974230371095 1.175346 Q 6.843974230371095 1.171827 6.843974230371095 1.1700675 Q 6.843974230371095 1.168308 6.843974230371095 1.1665485 M 7.936101035156251 0 L 8.509698035156251 1.256283 L 8.194747535156251 1.256283 L 7.8287715351562515 0.3395834999999999 L 7.936101035156251 0 M 7.557808535156251 1.1383965 Q 7.543732535156251 1.1735864999999999 7.552530035156251 1.1982195 Q 7.561327535156251 1.2228525 7.582441535156251 1.23604875 Q 7.603555535156252 1.249245 7.624669535156252 1.249245 L 7.640505035156251 1.249245 L 7.640505035156251 1.26684 L 7.263972035156251 1.26684 L 7.263972035156251 1.249245 Q 7.263972035156251 1.249245 7.271889785156251 1.249245 Q 7.279807535156252 1.249245 7.279807535156252 1.249245 Q 7.320276035156251 1.249245 7.363383785156252 1.2237322499999999 Q 7.406491535156252 1.1982195 7.434643535156251 1.1383965 L 7.557808535156251 1.1383965 M 7.936101035156251 0 L 7.943139035156252 0.21465899999999993 L 7.506783035156252 1.2615615 L 7.378339535156251 1.2615615 L 7.834050035156252 0.23049450000000005 Q 7.839328535156252 0.2199374999999999 7.852524785156252 0.19090574999999999 Q 7.865721035156251 0.16187400000000007 7.880676785156251 0.12492449999999988 Q 7.895632535156252 0.08797499999999991 7.907949035156252 0.05366475000000004 Q 7.920265535156251 0.01935449999999994 7.920265535156251 0 L 7.936101035156251 0 M 8.120848535156252 0.848079 L 8.120848535156252 0.921978 L 7.603555535156252 0.921978 L 7.603555535156252 0.848079 L 8.120848535156252 0.848079 M 8.147241035156252 1.1383965 L 8.455153535156251 1.1383965 Q 8.485065035156252 1.1982195 8.527293035156251 1.2237322499999999 Q 8.569521035156251 1.249245 8.609989535156252 1.249245 Q 8.609989535156252 1.249245 8.617027535156252 1.249245 Q 8.624065535156252 1.249245 8.624065535156252 1.249245 L 8.624065535156252 1.26684 L 8.064544535156251 1.26684 L 8.064544535156251 1.249245 L 8.080380035156251 1.249245 Q 8.115570035156251 1.249245 8.141962535156251 1.22021325 Q 8.168355035156251 1.1911815 8.147241035156252 1.1383965 M 9.084491460791018 0.035190000000000055 L 9.311466960791018 0.035190000000000055 Q 9.390644460791018 0.035190000000000055 9.466302960791017 0.05278499999999986 Q 9.541961460791017 0.07037999999999989 9.600904710791017 0.10908899999999999 Q 9.659847960791017 0.14779799999999987 9.695037960791018 0.21113999999999988 Q 9.730227960791018 0.274482 9.730227960791018 0.3677355 Q 9.730227960791018 0.44163449999999993 9.699436710791018 0.51465375 Q 9.668645460791017 0.587673 9.605303460791017 0.63957825 Q 9.541961460791017 0.6914834999999999 9.441669960791018 0.7020405 Q 9.497973960791017 0.7196355 9.544600710791018 0.7653825 Q 9.591227460791018 0.8111295 9.621138960791017 0.8568765 Q 9.622898460791017 0.8603955 9.641373210791016 0.8885475 Q 9.659847960791017 0.9166995 9.687120210791017 0.95804775 Q 9.714392460791018 0.999396 9.744303960791017 1.0416239999999999 Q 9.774215460791018 1.083852 9.798848460791017 1.115523 Q 9.837557460791018 1.1630295 9.869228460791017 1.19206125 Q 9.900899460791017 1.221093 9.936089460791017 1.23428925 Q 9.971279460791017 1.2474855 10.017026460791017 1.249245 L 10.017026460791017 1.26684 L 9.844595460791018 1.26684 Q 9.749582460791018 1.26684 9.672164460791016 1.249245 Q 9.594746460791017 1.23165 9.534923460791017 1.19206125 Q 9.475100460791017 1.1524725 9.431112960791017 1.083852 Q 9.417036960791018 1.062738 9.400321710791017 1.03018725 Q 9.383606460791018 0.9976365 9.366011460791018 0.960687 Q 9.348416460791018 0.9237375 9.331701210791017 0.88942725 Q 9.314985960791017 0.8551169999999999 9.302669460791018 0.826965 Q 9.290352960791017 0.798813 9.285074460791018 0.7829775 Q 9.262200960791017 0.7266735 9.231409710791016 0.6985215 Q 9.200618460791016 0.6703695 9.165428460791016 0.665091 L 9.165428460791016 0.647496 Q 9.170706960791017 0.647496 9.186542460791017 0.647496 Q 9.202377960791017 0.647496 9.219972960791017 0.647496 Q 9.267479460791018 0.647496 9.312346710791017 0.6281415 Q 9.357213960791018 0.608787 9.392403960791018 0.5647995 Q 9.427593960791018 0.5208119999999999 9.441669960791018 0.44339399999999995 Q 9.445188960791018 0.42755849999999995 9.447828210791018 0.4064445 Q 9.450467460791018 0.3853305 9.448707960791017 0.358938 Q 9.443429460791018 0.23225399999999996 9.385365960791017 0.17331074999999996 Q 9.327302460791017 0.11436749999999996 9.241086960791018 0.11260800000000004 Q 9.216453960791018 0.1108484999999999 9.187422210791016 0.11172824999999986 Q 9.158390460791017 0.11260800000000004 9.134637210791018 0.11260800000000004 Q 9.110883960791018 0.11260800000000004 9.102086460791018 0.11260800000000004 Q 9.102086460791018 0.1108484999999999 9.097687710791018 0.09237374999999992 Q 9.093288960791018 0.07389899999999994 9.088890210791018 0.054544499999999996 Q 9.084491460791018 0.035190000000000055 9.084491460791018 0.035190000000000055 M 9.107364960791017 0.035190000000000055 L 9.107364960791017 1.26684 L 8.843439960791017 1.26684 L 8.843439960791017 0.035190000000000055 L 9.107364960791017 0.035190000000000055 M 8.848718460791018 1.1383965 L 8.848718460791018 1.26684 L 8.707958460791017 1.26684 L 8.707958460791017 1.249245 Q 8.709717960791018 1.249245 8.719395210791017 1.249245 Q 8.729072460791018 1.249245 8.730831960791017 1.249245 Q 8.776578960791017 1.249245 8.809129710791018 1.21669425 Q 8.841680460791018 1.1841435 8.843439960791017 1.1383965 L 8.848718460791018 1.1383965 M 8.848718460791018 0.1636335 L 8.843439960791017 0.1636335 Q 8.841680460791018 0.1178865 8.809129710791018 0.08533575000000004 Q 8.776578960791017 0.05278499999999986 8.730831960791017 0.05278499999999986 Q 8.729072460791018 0.05278499999999986 8.719395210791017 0.05278499999999986 Q 8.709717960791018 0.05278499999999986 8.707958460791017 0.05278499999999986 L 8.707958460791017 0.035190000000000055 L 8.848718460791018 0.035190000000000055 L 8.848718460791018 0.1636335 M 9.102086460791018 1.1383965 L 9.107364960791017 1.1383965 Q 9.107364960791017 1.1841435 9.140795460791017 1.21669425 Q 9.174225960791016 1.249245 9.219972960791017 1.249245 Q 9.223491960791018 1.249245 9.232289460791018 1.249245 Q 9.241086960791018 1.249245 9.241086960791018 1.249245 L 9.241086960791018 1.26684 L 9.102086460791018 1.26684 L 9.102086460791018 1.1383965 M 10.65171677167969 0.04046850000000002 L 10.65171677167969 1.26684 L 10.387791771679689 1.26684 L 10.387791771679689 0.04046850000000002 L 10.65171677167969 0.04046850000000002 M 11.082794271679688 0.03343049999999992 L 11.082794271679688 0.10732950000000008 L 9.956714271679688 0.10732950000000008 L 9.956714271679688 0.03343049999999992 L 11.082794271679688 0.03343049999999992 M 11.082794271679688 0.10205099999999989 L 11.082794271679688 0.30967199999999995 L 11.065199271679688 0.3079124999999999 L 11.065199271679688 0.288558 Q 11.065199271679688 0.20586149999999992 11.016813021679688 0.15747525000000007 Q 10.968426771679688 0.10908899999999999 10.885730271679689 0.10732950000000008 L 10.885730271679689 0.10205099999999989 L 11.082794271679688 0.10205099999999989 M 11.082794271679688 0.001759499999999914 L 11.082794271679688 0.05278499999999986 L 10.868135271679689 0.03343049999999992 Q 10.906844271679688 0.03343049999999992 10.949952021679689 0.028151999999999955 Q 10.99305977167969 0.02287349999999999 11.030009271679688 0.01583549999999989 Q 11.066958771679689 0.008797500000000014 11.082794271679688 0.001759499999999914 M 10.393070271679688 1.1383965 L 10.393070271679688 1.26684 L 10.252310271679688 1.26684 L 10.252310271679688 1.249245 Q 10.252310271679688 1.249245 10.263747021679688 1.249245 Q 10.27518377167969 1.249245 10.27518377167969 1.249245 Q 10.320930771679688 1.249245 10.353481521679688 1.21669425 Q 10.386032271679689 1.1841435 10.387791771679689 1.1383965 L 10.393070271679688 1.1383965 M 10.646438271679688 1.1383965 L 10.65171677167969 1.1383965 Q 10.653476271679688 1.1841435 10.686027021679688 1.21669425 Q 10.718577771679689 1.249245 10.76432477167969 1.249245 Q 10.76432477167969 1.249245 10.775761521679689 1.249245 Q 10.787198271679689 1.249245 10.787198271679689 1.249245 L 10.787198271679689 1.26684 L 10.646438271679688 1.26684 L 10.646438271679688 1.1383965 M 10.152018771679689 0.10205099999999989 L 10.152018771679689 0.10732950000000008 Q 10.071081771679689 0.10908899999999999 10.022695521679688 0.15747525000000007 Q 9.974309271679688 0.20586149999999992 9.974309271679688 0.288558 L 9.974309271679688 0.3079124999999999 L 9.956714271679688 0.30967199999999995 L 9.956714271679688 0.10205099999999989 L 10.152018771679689 0.10205099999999989 M 9.956714271679688 0.001759499999999914 Q 9.974309271679688 0.008797500000000014 10.01037902167969 0.01583549999999989 Q 10.046448771679689 0.02287349999999999 10.090436271679689 0.028151999999999955 Q 10.134423771679689 0.03343049999999992 10.17137327167969 0.03343049999999992 L 9.956714271679688 0.05278499999999986 L 9.956714271679688 0.001759499999999914" fill="url(#gradient-07b43f38-ccdd-4c52-ac31-f1636fb0d38f)" fill-rule="nonzero"></path></g><g></g><g clip-path="url(#SvgjsClipPath1001)"><g clip-path="url(#SvgjsClipPath10003a6ba5dd-6cec-4dae-9940-314c445d5ebb)"><path d=" M 1.5561628298850165 -2.9040455047721716 C 3.0256704504190046 -2.990709324615547 4.341157696547327 -1.998878719533708 4.662150380863059 -0.5622413397147339 L 6.461414192830389 -0.5622413397147339 C 7.598733997657525 -4.380919450804243 3.7360257891370297 -5.596597903601743 1.5561628298850165 -2.9040455047721716 Z" fill="#004a80" transform="matrix(1,0,0,1,0,0)" fill-rule="evenodd"></path></g><g clip-path="url(#SvgjsClipPath10003a6ba5dd-6cec-4dae-9940-314c445d5ebb)"><path d=" M 1.4531771782668228 -1.014482679429448 L 4.088266568584801 -1.014482679429448 C 3.0218426833499015 -2.587625821539427 1.7360145837979724 -2.077921473313096 1.4531771782668228 -1.014482679429448 Z" fill="#006fbf" transform="matrix(1,0,0,1,0,0)" fill-rule="evenodd"></path></g><g clip-path="url(#SvgjsClipPath10003a6ba5dd-6cec-4dae-9940-314c445d5ebb)"><path d=" M 8.994264204367969 -0.11000000000000831 C 10.930842218492906 -3.1428528128723583 8.253961549257397 -6.4660057596539975 5.3375272990838845 -5.201819572398646 C 7.289777042802897 -4.107037319326859 7.501718528741811 -2.1353844818247016 6.731564960118715 -0.11000000000000831 Z" fill="#bfe4ff" transform="matrix(1,0,0,1,0,0)" fill-rule="evenodd"></path></g></g></g><defs><linearGradient id="gradient-07b43f38-ccdd-4c52-ac31-f1636fb0d38f" x1="0" y1="0" x2="1" y2="1"><stop stop-color="#51a8db" offset="0"></stop><stop stop-color="#3361e1" offset="1"></stop></linearGradient><clipPath id="SvgjsClipPath1001"><path d=" M 1.4531771782668228 -5.477940522389474 h 8.199299669052294 v 5.367940522389474 h -8.199299669052294 Z"></path></clipPath><clipPath id="SvgjsClipPath10003a6ba5dd-6cec-4dae-9940-314c445d5ebb"><path d=" M 1.4531771782668228 -5.477940522389474 L 9.652476847319118 -5.477940522389474 L 9.652476847319118 -0.11000000000000032 L 1.4531771782668228 -0.11000000000000032 Z"></path></clipPath></defs></svg>